<svg xmlns="http://www.w3.org/2000/svg" width="34" height="38" viewBox='0 0 34 38' shape-rendering='geometricPrecision' role='img' aria-labelledby='title'><title>Azure Alphant logo</title><defs><style>path{stroke-width:.5;}.bg,.ivory,.bone,.nostril{stroke-width:0;}.clear,.shadow,.black,.textivory,.textbone,.nose{stroke:#007FFF;}.black{fill:#007FFF;}.clear,.nose,.shadow,.nostril,.bg,.alephant,.blue,.ivory,.textivory,.bone,.textbone{fill:rgba(0,0,0,0);}</style></defs><path d="M0 0 0 38 34 38 34 0 0 0" fill="#0000" class="bg" role="presentation"/><path d="M14 20 13 19 12 21 4 18 1 15 1 4 3 1 7 1 13 2 12 3 22 3 21 2 27 1 31 1 33 4 33 15 30 18 22 21 21 19 20 20 20 21 19.5 23 18 24.5 16 25.5 14.5 27 14 28 13.4 30 13.2 31 13.3 32.5 14 33.5 15 34 17 34.3 19 34 19.7 35 19 36 17 36.5 15 36.5 12.5 35.5 11 34 10.2 31.4 10.2 29.8 11 27 12 25 13 24 14 23 14.4 22 14.2 21 14 20" class="blue" role="presentation"/><path d="M14 20 13 19 12 21 4 18 1 15 1 4 3 1 7 1 13 2 12 3 22 3 21 2 27 1 31 1 33 4 33 15 30 18 22 21 21 19 20 20 20 21 19.5 23 18 24.5 16 25.5 14.5 27 14 28 13.4 30 13.2 31 13.3 32.5 14 33.5 15 34 17 34.3 19 34 19.7 35 19 36 17 36.5 15 36.5 12.5 35.5 11 34 10.2 31.4 10.2 29.8 11 27 12 25 13 24 14 23 14.4 22 14.2 21 14 20" class="alephant" role="presentation"/><path d="M12 3 22 3 24 6 25 11 20.5 5.5 17 5 13.5 5.5 9 11 10 6 12 3" class="clear" role="presentation"/><path d="M25 11 20.5 5.5 17 5 13.5 5.5 9 11 11 11 17 9 23 11 25 11" class="clear" role="presentation"/><path d="M9 12 11 11 17 9 17 14 14 15 13 19 9 12" class="clear" role="presentation"/><path d="M25 12 23 11 17 9 17 14 20 15 21 19 25 12" class="clear" role="presentation"/><path d="M9 12 9 11 11 11 9 12" class="black" role="presentation"/><path d="M25 12 23 11 25 11 25 12" class="black" role="presentation"/><path d="M14 15 13 19 14 20 14 15" class="shadow" role="presentation"/><path d="M20 15 21 19 20 20 20 15" class="shadow" role="presentation"/><path d="M13 19 12 21 4 18 1 15 1 4 3 1 7 1 13 2 12 3 10 6 9 11 9 12 13 19" class="shadow" role="presentation"/><path d="M22 3 21 2 27 1 31 1 33 4 33 15 30 18 22 21 21 19 25 12 25 11 24 6 22 3" class="shadow" role="presentation"/><path d="M14 20 13 19 11 23 9 25 10 25 12 24 14 20" class="ivory" role="presentation"/><path d="M10 24 9 25 8 25 7 24 8 24.5 10 24" class="bone" role="presentation"/><path d="M20 20 21 19 22 21 23 23 25 25 24 25 22 24 20 20" class="ivory" role="presentation"/><path d="M24 24 25 25 26 25 27 24 26 24.5 24 24" class="bone" role="presentation"/><path d="M14 15 14 17 17 16 20 17 20 15 17 14 14 15" class="clear" role="presentation"/><path d="M14 17 17 16 20 17 20 19 17 18 14 19 14 17" class="clear" role="presentation"/><path d="M14 19 17 18 20 19 20 21 17 20 14.2 21 14 20 14 19" class="nose" role="presentation"/><path d="M14.2 21 17 20 20 21 19.5 23 17 22 14.4 22 14.2 21" class="nose" role="presentation"/><path d="M14.4 22 17 22 19.5 23 18 24.5 16 24 14 23 14.4 22" class="nose" role="presentation"/><path d="M14 23 16 24 18 24.5 16 25.5 14 25 13 24 14 23" class="nose" role="presentation"/><path d="M13 24 14 25 16 25.5 14.5 27 13 26.5 12 25 13 24" class="nose" role="presentation"/><path d="M12 25 13 26.5 14.5 27 14 28 12.4 28 11 27 12 25" class="nose" role="presentation"/><path d="M11 27 12.4 28 14 28 13.4 30 11.8 30 10.2 29.8 11 27" class="nose" role="presentation"/><path d="M10.2 29.8 11.8 30 13.4 30 13.2 31 11.9 31.3 10.2 31.4 10.2 29.8" class="nose" role="presentation"/><path d="M10.2 31.4 11.9 31.3 13.2 31 13.3 32.5 12.3 33 11 34 10.2 31.4" class="nose" role="presentation"/><path d="M11 34 12.3 33 13.3 32.5 14 33.5 13.5 34.5 12.5 35.5 11 34" class="nose" role="presentation"/><path d="M12.5 35.5 13.5 34.5 14 33.5 15 34 15 36.5 12.5 35.5" class="nose" role="presentation"/><path d="M15 36.5 15 34 17 34.3 17 36.5 15 36.5" class="nose" role="presentation"/><path d="M17 36.5 17 34.3 19 34 18.5 35.1 19 36 17 36.5" class="nose" role="presentation"/><path d="M19 36 18.5 35.1 19 34 19.7 35 19 36" class="nose" role="presentation"/><path d="M19.1 35 18.9 34.6 18.8 35 18.9 35.4 19.1 35" class="nostril" role="presentation"/><path d="M19.2 35 19.3 34.6 19.5 35 19.3 35.4 19.2 35" class="nostril" role="presentation"/><path d="M15 27.5 17 27.5 17 28 15 28 15 27.5" class="textbone" role="presentation"/><path d="M14 29 14.5 29 14.5 31 14 31 14 29" class="textbone" role="presentation"/><path d="M15 32.5 17 32.5 17 33 15 33 15 32.5" class="textbone" role="presentation"/><path d="M19 27 16.5 33 17 33 19 28.5 19 27" class="textivory" role="presentation"/><path d="M15.5 33 15 33 14 31 14 30 15.5 33" class="textivory" role="presentation"/><path d="M14 29 15 27.5 15.5 27.5 14 30 14 29" class="textivory" role="presentation"/><path d="M16.5 27.5 17 27.5 19.25 33 19 33 16.5 27.5" class="textivory" role="presentation"/><path d="M19 33 19.25 33 19.5 32.5 19 33" class="textbone" role="presentation"/></svg>